<?xml version="1.0" encoding="UTF-8" standalone="no"?>
<svg
   version="1.1"
   id="Layer_1"
   x="0px"
   y="0px"
   width="500"
   viewBox="0 0 500 500"
   enable-background="new 0 0 576 624"
   xml:space="preserve"
   sodipodi:docname="Spear.svg"
   height="500"
   inkscape:version="1.2.2 (b0a8486541, 2022-12-01)"
   xmlns:inkscape="http://www.inkscape.org/namespaces/inkscape"
   xmlns:sodipodi="http://sodipodi.sourceforge.net/DTD/sodipodi-0.dtd"
   xmlns="http://www.w3.org/2000/svg"
   xmlns:svg="http://www.w3.org/2000/svg"><defs
   id="defs15" /><sodipodi:namedview
   id="namedview13"
   pagecolor="#ffffff"
   bordercolor="#999999"
   borderopacity="1"
   inkscape:showpageshadow="true"
   inkscape:pageopacity="0"
   inkscape:pagecheckerboard="false"
   inkscape:deskcolor="#d1d1d1"
   showgrid="false"
   showborder="true"
   shape-rendering="auto"
   inkscape:zoom="1.2532051"
   inkscape:cx="105.32992"
   inkscape:cy="209.86189"
   inkscape:window-width="1920"
   inkscape:window-height="1011"
   inkscape:window-x="0"
   inkscape:window-y="0"
   inkscape:window-maximized="1"
   inkscape:current-layer="Layer_1" />
<path
   fill="#000000"
   opacity="1"
   stroke="none"
   d="m 96.593972,389.18289 c -5.39139,3.78973 -10.490306,7.36963 -15.589226,10.94952 1.25945,-4.86642 4.98737,-7.44558 7.98307,-10.49212 21.606854,-21.97367 43.414474,-43.74997 65.172924,-65.57443 1.7186,-1.72379 3.01819,-3.2222 1.69672,-6.04444 -2.49501,-5.32843 -0.9256,-9.96887 3.17108,-14.01816 8.88847,-8.78561 17.15699,-18.29638 26.7015,-26.28976 7.80057,-6.53281 9.40209,-14.47943 10.16167,-23.65894 2.04266,-24.68557 4.59026,-49.32904 6.76009,-74.0048 0.261,-2.96805 1.39807,-4.40097 4.04667,-5.44158 27.28347,-10.71959 54.53093,-21.53074 81.79049,-32.31108 7.89892,-3.12375 15.80343,-6.23346 23.70816,-9.34248 1.51391,-0.59544 2.97973,-1.45192 4.79589,-1.15282 1.32785,3.47934 -0.2864,7.07532 1.01941,10.89388 3.40512,-2.68094 4.39518,-6.59848 5.97156,-9.99098 1.78998,-3.85215 4.22388,-6.23732 8.33637,-7.8057 20.3851,-7.7742 40.6325,-15.90921 60.93176,-23.90877 1.36392,-0.53749 2.65128,-1.449394 4.31308,-1.003704 1.36219,1.715604 -0.0681,3.140064 -0.62713,4.560534 -14.6366,37.18782 -29.38032,74.33375 -43.89371,111.56947 -1.70133,4.36501 -4.00904,7.38161 -8.42441,9.03899 -3.05768,1.14773 -5.88544,2.90802 -9.66098,4.8233 4.19415,1.28323 7.82852,-0.29291 10.76321,1.30188 0.94199,1.63772 0.13403,2.82739 -0.34238,4.03509 -7.27227,18.43525 -14.64663,36.83118 -21.75271,55.33024 -1.27509,3.31942 -3.24552,4.73089 -6.52149,5.0324 -22.03674,2.02808 -44.07064,4.08667 -66.108,6.10828 -1.12414,0.10315 -2.32467,0.21036 -4.14892,-1.31296 37.47378,-53.67752 74.96557,-107.3808 112.45736,-161.08407 -0.14093,-0.14606 -0.28183,-0.29212 -0.42276,-0.43817 -37.76745,31.35704 -75.53491,62.71409 -113.30236,94.07113 -0.40528,-0.36673 -0.81058,-0.73349 -1.21586,-1.10022 16.2616,-22.66052 32.52323,-45.32103 49.4841,-68.95596 -7.47503,1.83011 -13.1315,4.64227 -18.96902,6.92493 -15.82013,6.18617 -31.55679,12.58914 -47.43311,18.62594 -3.60318,1.37009 -5.42202,3.27963 -5.73953,7.08888 -1.00845,12.09926 -2.1625,24.18648 -3.28125,36.27645 -1.54776,16.72571 -3.13061,33.44821 -4.66794,50.17486 -1.12655,12.25718 -2.27789,24.51304 -3.24224,36.7833 -0.19755,2.51358 -1.00721,4.42319 -2.76488,6.14819 -5.11394,5.01874 -10.2063,10.06192 -15.19844,15.20108 -1.78031,1.83274 -3.5949,2.48218 -6.20859,2.21106 -6.12032,-0.63489 -12.28372,-0.84927 -18.42752,-1.26568 -3.34491,-0.22669 -5.57845,2.01733 -7.97949,3.69076 -21.04869,14.66998 -42.04139,29.42029 -63.343168,44.35666 z"
   id="path2" />
<path
   fill="#000000"
   opacity="1"
   stroke="none"
   d="m 122.84532,137.42267 c 22.21123,-23.8176 48.59659,-40.292144 79.48029,-49.462884 38.37941,-11.39653 76.23845,-9.0815 113.61202,4.60855 1.18051,0.43245 2.6315,0.71973 2.98242,2.40129 -1.54941,1.00831 -2.8519,-0.11203 -4.1879,-0.48583 -48.96085,-13.699 -94.34268,-5.64164 -135.85361,23.259744 -32.80813,22.84224 -53.59401,54.41312 -62.82583,93.11838 -9.36763,39.27468 -4.05255,77.00286 15.27005,112.5367 2.18576,4.01962 1.81472,6.35925 -1.35446,9.40466 -7.42472,7.13474 -14.52028,14.61194 -22.49396,22.70667 -16.593978,-24.00882 -26.291654,-49.74268 -29.440124,-77.65079 -6.00136,-53.19632 9.08139,-100.0098 44.811104,-140.43649 z"
   id="path4" />
<path
   fill="#000000"
   opacity="1"
   stroke="none"
   d="m 319.58295,418.24948 c -72.85901,30.7197 -150.48103,5.22159 -190.08482,-37.13925 0.13778,-1.79044 1.69331,-2.34702 2.87252,-3.18402 7.19906,-5.1099 14.48069,-10.10578 21.60762,-15.31369 2.8521,-2.08405 4.81185,-2.24524 7.67624,0.42352 24.8436,23.14661 54.03559,37.75845 87.75425,42.10806 45.37591,5.85333 86.2323,-5.72174 121.9783,-34.3695 19.97669,-16.00983 35.06769,-35.91013 45.20413,-59.48771 0.63947,-1.48736 0.8414,-3.23919 2.4401,-4.2182 0.64584,9.29065 -16.88047,45.45044 -36.37742,66.65515 -17.75964,19.31519 -38.52212,34.23508 -63.07092,44.52564 z"
   id="path6" />
<path
   fill="#000000"
   opacity="1"
   stroke="none"
   d="m 345.58307,340.14102 c 28.50397,-27.61081 41.38233,-61.04776 39.04569,-100.19052 -0.78611,-13.16812 -3.75229,-26.05269 -9.43418,-38.07962 -1.94333,-4.11344 -1.99487,-7.71359 -0.21005,-11.84767 3.23093,-7.48358 6.03088,-15.1527 9.04852,-22.72934 0.54172,-1.36009 0.87882,-2.90149 3.04679,-4.03041 11.95413,16.4589 19.80921,34.73442 23.31299,54.74771 6.13702,35.05386 0.12002,68.09164 -19.13181,98.06079 -40.50589,63.05527 -115.48593,75.52798 -167.23517,52.29986 45.47019,12.06156 86.03177,3.28751 121.55722,-28.2308 z"
   id="path8" />
<path
   fill="#000000"
   opacity="1"
   stroke="none"
   d="m 241.91779,127.54455 c -44.77095,8.31699 -76.02742,33.32462 -95.32782,73.87818 9.60548,-31.31809 27.82205,-56.32814 55.57455,-73.62227 38.20288,-23.80631 78.83911,-27.939634 121.44138,-13.13223 -0.37088,2.81474 -2.44269,2.70683 -3.80631,3.2668 -8.31243,3.41339 -16.70086,6.64143 -25.0224,10.03317 -2.73251,1.11372 -5.42938,1.40039 -8.29147,0.74438 -14.62692,-3.3526 -29.35217,-3.46281 -44.56793,-1.16803 z"
   id="path10" />
</svg>
